<svg id="visual" viewBox="0 0 900 200" width="900" height="200" xmlns="http://www.w3.org/2000/svg" xmlns:xlink="http://www.w3.org/1999/xlink" version="1.1"><rect x="0" y="0" width="900" height="200" fill="#65a30d"></rect><path d="M0 44L18.8 44.8C37.7 45.7 75.3 47.3 112.8 49.7C150.3 52 187.7 55 225.2 53.5C262.7 52 300.3 46 337.8 45.5C375.3 45 412.7 50 450.2 47.2C487.7 44.3 525.3 33.7 562.8 33.2C600.3 32.7 637.7 42.3 675.2 40.7C712.7 39 750.3 26 787.8 18.8C825.3 11.7 862.7 10.3 881.3 9.7L900 9L900 201L881.3 201C862.7 201 825.3 201 787.8 201C750.3 201 712.7 201 675.2 201C637.7 201 600.3 201 562.8 201C525.3 201 487.7 201 450.2 201C412.7 201 375.3 201 337.8 201C300.3 201 262.7 201 225.2 201C187.7 201 150.3 201 112.8 201C75.3 201 37.7 201 18.8 201L0 201Z" fill="#73ce61"></path><path d="M0 87L18.8 80.8C37.7 74.7 75.3 62.3 112.8 63.3C150.3 64.3 187.7 78.7 225.2 79.8C262.7 81 300.3 69 337.8 60.7C375.3 52.3 412.7 47.7 450.2 54C487.7 60.3 525.3 77.7 562.8 77.2C600.3 76.7 637.7 58.3 675.2 52.5C712.7 46.7 750.3 53.3 787.8 62.3C825.3 71.3 862.7 82.7 881.3 88.3L900 94L900 201L881.3 201C862.7 201 825.3 201 787.8 201C750.3 201 712.7 201 675.2 201C637.7 201 600.3 201 562.8 201C525.3 201 487.7 201 450.2 201C412.7 201 375.3 201 337.8 201C300.3 201 262.7 201 225.2 201C187.7 201 150.3 201 112.8 201C75.3 201 37.7 201 18.8 201L0 201Z" fill="#30bc85"></path><path d="M0 98L18.8 97.2C37.7 96.3 75.3 94.7 112.8 96C150.3 97.3 187.7 101.7 225.2 102C262.7 102.3 300.3 98.7 337.8 101.7C375.3 104.7 412.7 114.3 450.2 119.7C487.7 125 525.3 126 562.8 123.2C600.3 120.3 637.7 113.7 675.2 107.2C712.7 100.7 750.3 94.3 787.8 89.5C825.3 84.7 862.7 81.3 881.3 79.7L900 78L900 201L881.3 201C862.7 201 825.3 201 787.8 201C750.3 201 712.7 201 675.2 201C637.7 201 600.3 201 562.8 201C525.3 201 487.7 201 450.2 201C412.7 201 375.3 201 337.8 201C300.3 201 262.7 201 225.2 201C187.7 201 150.3 201 112.8 201C75.3 201 37.7 201 18.8 201L0 201Z" fill="#00a698"></path><path d="M0 141L18.8 139.2C37.7 137.3 75.3 133.7 112.8 128.2C150.3 122.7 187.7 115.3 225.2 114C262.7 112.7 300.3 117.3 337.8 118.3C375.3 119.3 412.7 116.7 450.2 121C487.7 125.3 525.3 136.7 562.8 136.8C600.3 137 637.7 126 675.2 123C712.7 120 750.3 125 787.8 130C825.3 135 862.7 140 881.3 142.5L900 145L900 201L881.3 201C862.7 201 825.3 201 787.8 201C750.3 201 712.7 201 675.2 201C637.7 201 600.3 201 562.8 201C525.3 201 487.7 201 450.2 201C412.7 201 375.3 201 337.8 201C300.3 201 262.7 201 225.2 201C187.7 201 150.3 201 112.8 201C75.3 201 37.7 201 18.8 201L0 201Z" fill="#008e9a"></path><path d="M0 188L18.8 188C37.7 188 75.3 188 112.8 181.3C150.3 174.7 187.7 161.3 225.2 157C262.7 152.7 300.3 157.3 337.8 155.3C375.3 153.3 412.7 144.7 450.2 143C487.7 141.3 525.3 146.7 562.8 148.5C600.3 150.3 637.7 148.7 675.2 151.3C712.7 154 750.3 161 787.8 166.7C825.3 172.3 862.7 176.7 881.3 178.8L900 181L900 201L881.3 201C862.7 201 825.3 201 787.8 201C750.3 201 712.7 201 675.2 201C637.7 201 600.3 201 562.8 201C525.3 201 487.7 201 450.2 201C412.7 201 375.3 201 337.8 201C300.3 201 262.7 201 225.2 201C187.7 201 150.3 201 112.8 201C75.3 201 37.7 201 18.8 201L0 201Z" fill="#0e7490"></path></svg>