<svg id="visual" viewBox="0 0 900 200" width="900" height="200" xmlns="http://www.w3.org/2000/svg" xmlns:xlink="http://www.w3.org/1999/xlink" version="1.1"><rect x="0" y="0" width="900" height="200" fill="#0e7490"></rect><path d="M0 60L18.8 60.7C37.7 61.3 75.3 62.7 112.8 64.7C150.3 66.7 187.7 69.3 225.2 68C262.7 66.7 300.3 61.3 337.8 60.8C375.3 60.3 412.7 64.7 450.2 62.2C487.7 59.7 525.3 50.3 562.8 50C600.3 49.7 637.7 58.3 675.2 56.8C712.7 55.3 750.3 43.7 787.8 37.2C825.3 30.7 862.7 29.3 881.3 28.7L900 28L900 201L881.3 201C862.7 201 825.3 201 787.8 201C750.3 201 712.7 201 675.2 201C637.7 201 600.3 201 562.8 201C525.3 201 487.7 201 450.2 201C412.7 201 375.3 201 337.8 201C300.3 201 262.7 201 225.2 201C187.7 201 150.3 201 112.8 201C75.3 201 37.7 201 18.8 201L0 201Z" fill="#909da1"></path><path d="M0 99L18.8 93.3C37.7 87.7 75.3 76.3 112.8 77C150.3 77.7 187.7 90.3 225.2 91.5C262.7 92.7 300.3 82.3 337.8 75C375.3 67.7 412.7 63.3 450.2 68.8C487.7 74.3 525.3 89.7 562.8 89.2C600.3 88.7 637.7 72.3 675.2 67.2C712.7 62 750.3 68 787.8 76.2C825.3 84.3 862.7 94.7 881.3 99.8L900 105L900 201L881.3 201C862.7 201 825.3 201 787.8 201C750.3 201 712.7 201 675.2 201C637.7 201 600.3 201 562.8 201C525.3 201 487.7 201 450.2 201C412.7 201 375.3 201 337.8 201C300.3 201 262.7 201 225.2 201C187.7 201 150.3 201 112.8 201C75.3 201 37.7 201 18.8 201L0 201Z" fill="#859399"></path><path d="M0 108L18.8 107.2C37.7 106.3 75.3 104.7 112.8 105.8C150.3 107 187.7 111 225.2 111.5C262.7 112 300.3 109 337.8 111.8C375.3 114.7 412.7 123.3 450.2 128C487.7 132.7 525.3 133.3 562.8 130.7C600.3 128 637.7 122 675.2 116.2C712.7 110.3 750.3 104.7 787.8 100.3C825.3 96 862.7 93 881.3 91.5L900 90L900 201L881.3 201C862.7 201 825.3 201 787.8 201C750.3 201 712.7 201 675.2 201C637.7 201 600.3 201 562.8 201C525.3 201 487.7 201 450.2 201C412.7 201 375.3 201 337.8 201C300.3 201 262.7 201 225.2 201C187.7 201 150.3 201 112.8 201C75.3 201 37.7 201 18.8 201L0 201Z" fill="#7b8891"></path><path d="M0 146L18.8 144.5C37.7 143 75.3 140 112.8 135.2C150.3 130.3 187.7 123.7 225.2 122.3C262.7 121 300.3 125 337.8 126C375.3 127 412.7 125 450.2 129C487.7 133 525.3 143 562.8 143.2C600.3 143.3 637.7 133.7 675.2 130.8C712.7 128 750.3 132 787.8 136.5C825.3 141 862.7 146 881.3 148.5L900 151L900 201L881.3 201C862.7 201 825.3 201 787.8 201C750.3 201 712.7 201 675.2 201C637.7 201 600.3 201 562.8 201C525.3 201 487.7 201 450.2 201C412.7 201 375.3 201 337.8 201C300.3 201 262.7 201 225.2 201C187.7 201 150.3 201 112.8 201C75.3 201 37.7 201 18.8 201L0 201Z" fill="#727d89"></path><path d="M0 190L18.8 189.8C37.7 189.7 75.3 189.3 112.8 183.2C150.3 177 187.7 165 225.2 161C262.7 157 300.3 161 337.8 159.2C375.3 157.3 412.7 149.7 450.2 148.3C487.7 147 525.3 152 562.8 153.8C600.3 155.7 637.7 154.3 675.2 156.7C712.7 159 750.3 165 787.8 169.8C825.3 174.7 862.7 178.3 881.3 180.2L900 182L900 201L881.3 201C862.7 201 825.3 201 787.8 201C750.3 201 712.7 201 675.2 201C637.7 201 600.3 201 562.8 201C525.3 201 487.7 201 450.2 201C412.7 201 375.3 201 337.8 201C300.3 201 262.7 201 225.2 201C187.7 201 150.3 201 112.8 201C75.3 201 37.7 201 18.8 201L0 201Z" fill="#6b7280"></path></svg>