<svg id="visual" viewBox="0 0 900 200" width="900" height="200" xmlns="http://www.w3.org/2000/svg" xmlns:xlink="http://www.w3.org/1999/xlink" version="1.1"><rect x="0" y="0" width="900" height="200" fill="#FFFFFF"></rect><path d="M0 171L18.8 166.5C37.7 162 75.3 153 112.8 148.2C150.3 143.3 187.7 142.7 225.2 142.2C262.7 141.7 300.3 141.3 337.8 139.2C375.3 137 412.7 133 450.2 137.2C487.7 141.3 525.3 153.7 562.8 158.3C600.3 163 637.7 160 675.2 159C712.7 158 750.3 159 787.8 155.8C825.3 152.7 862.7 145.3 881.3 141.7L900 138L900 0L881.3 0C862.7 0 825.3 0 787.8 0C750.3 0 712.7 0 675.2 0C637.7 0 600.3 0 562.8 0C525.3 0 487.7 0 450.2 0C412.7 0 375.3 0 337.8 0C300.3 0 262.7 0 225.2 0C187.7 0 150.3 0 112.8 0C75.3 0 37.7 0 18.8 0L0 0Z" fill="#c2b1d3"></path><path d="M0 102L18.8 107.8C37.7 113.7 75.3 125.3 112.8 126.5C150.3 127.7 187.7 118.3 225.2 116.3C262.7 114.3 300.3 119.7 337.8 117C375.3 114.3 412.7 103.7 450.2 100C487.7 96.3 525.3 99.7 562.8 103C600.3 106.3 637.7 109.7 675.2 114C712.7 118.3 750.3 123.7 787.8 126.3C825.3 129 862.7 129 881.3 129L900 129L900 0L881.3 0C862.7 0 825.3 0 787.8 0C750.3 0 712.7 0 675.2 0C637.7 0 600.3 0 562.8 0C525.3 0 487.7 0 450.2 0C412.7 0 375.3 0 337.8 0C300.3 0 262.7 0 225.2 0C187.7 0 150.3 0 112.8 0C75.3 0 37.7 0 18.8 0L0 0Z" fill="#bd9cdd"></path><path d="M0 74L18.8 75.8C37.7 77.7 75.3 81.3 112.8 83.5C150.3 85.7 187.7 86.3 225.2 84.8C262.7 83.3 300.3 79.7 337.8 80.2C375.3 80.7 412.7 85.3 450.2 85.3C487.7 85.3 525.3 80.7 562.8 79.8C600.3 79 637.7 82 675.2 85.5C712.7 89 750.3 93 787.8 91.2C825.3 89.3 862.7 81.7 881.3 77.8L900 74L900 0L881.3 0C862.7 0 825.3 0 787.8 0C750.3 0 712.7 0 675.2 0C637.7 0 600.3 0 562.8 0C525.3 0 487.7 0 450.2 0C412.7 0 375.3 0 337.8 0C300.3 0 262.7 0 225.2 0C187.7 0 150.3 0 112.8 0C75.3 0 37.7 0 18.8 0L0 0Z" fill="#b786e7"></path><path d="M0 42L18.8 42C37.7 42 75.3 42 112.8 46.2C150.3 50.3 187.7 58.7 225.2 62.7C262.7 66.7 300.3 66.3 337.8 60.5C375.3 54.7 412.7 43.3 450.2 44.3C487.7 45.3 525.3 58.7 562.8 65.8C600.3 73 637.7 74 675.2 74C712.7 74 750.3 73 787.8 70.7C825.3 68.3 862.7 64.7 881.3 62.8L900 61L900 0L881.3 0C862.7 0 825.3 0 787.8 0C750.3 0 712.7 0 675.2 0C637.7 0 600.3 0 562.8 0C525.3 0 487.7 0 450.2 0C412.7 0 375.3 0 337.8 0C300.3 0 262.7 0 225.2 0C187.7 0 150.3 0 112.8 0C75.3 0 37.7 0 18.8 0L0 0Z" fill="#b06fef"></path><path d="M0 34L18.8 36.7C37.7 39.3 75.3 44.7 112.8 42.3C150.3 40 187.7 30 225.2 23.5C262.7 17 300.3 14 337.8 15.5C375.3 17 412.7 23 450.2 23.3C487.7 23.7 525.3 18.3 562.8 16.3C600.3 14.3 637.7 15.7 675.2 15C712.7 14.3 750.3 11.7 787.8 9.3C825.3 7 862.7 5 881.3 4L900 3L900 0L881.3 0C862.7 0 825.3 0 787.8 0C750.3 0 712.7 0 675.2 0C637.7 0 600.3 0 562.8 0C525.3 0 487.7 0 450.2 0C412.7 0 375.3 0 337.8 0C300.3 0 262.7 0 225.2 0C187.7 0 150.3 0 112.8 0C75.3 0 37.7 0 18.8 0L0 0Z" fill="#a855f7"></path></svg>